<svg xmlns="http://www.w3.org/2000/svg" viewBox="140 -1040 1200 1200" width="100%" height="100%">
  <style>
    .tram-path { fill: #141414; }
    @media (prefers-color-scheme: dark) {
      .tram-path { fill: #e3e3e3; }
    }
  </style>
<path class="tram-path" transform="translate(520, 80)" d="M160-260v-380q0-97 85-127t195-33l30-60H280v-60h400v60H550l-30 60q119 3 199.5 32.5T800-640v380q0 59-40.5 99.5T660-120l60 60v20h-80l-80-80H400l-80 80h-80v-20l60-60q-59 0-99.5-40.5T160-260m500-140H240h480zM522.5-257.5Q540-275 540-300t-17.5-42.5T480-360t-42.5 17.5T420-300t17.5 42.5T480-240t42.5-17.5M478-680h228-450zM240-480h480v-120H240zm60 280h360q26 0 43-17t17-43v-140H240v140q0 26 17 43t43 17m178-520q-134 0-172 14.5T256-680h450q-12-14-52-27t-176-13"/>
  <path fill="#d0021b" d="M240-120q-17 0-28.5-11.5T200-160v-82q-18-20-29-44.5T160-340v-380q0-83 77-121.5T480-880q172 0 246 37t74 123v380q0 29-11 53.5T760-242v82q0 17-11.5 28.5T720-120h-40q-17 0-28.5-11.5T640-160v-40H320v40q0 17-11.5 28.5T280-120zm242-640h224-448zm158 280H240h480zm-400-80h480v-120H240zm142.5 222.5Q400-355 400-380t-17.5-42.5T340-440t-42.5 17.5T280-380t17.5 42.5T340-320t42.5-17.5m280 0Q680-355 680-380t-17.5-42.5T620-440t-42.5 17.5T560-380t17.5 42.5T620-320t42.5-17.5M258-760h448q-15-17-64.5-28.5T482-800q-107 0-156.5 12.5T258-760m62 480h320q33 0 56.5-23.5T720-360v-120H240v120q0 33 23.5 56.5T320-280"/>
  
  
</svg>
